<svg width="84" height="84" viewBox="0 0 84 84" fill="none" xmlns="http://www.w3.org/2000/svg">
<rect width="84" height="84" rx="12.9231" fill="#F6F2E2"/>
<path d="M53.9999 55.4383C54.4949 55.4792 54.9956 55.5 55.5011 55.5C57.5978 55.5 59.6108 55.1415 61.482 54.4825C61.4947 54.3233 61.5011 54.1624 61.5011 54C61.5011 50.6863 58.8149 48 55.5011 48C54.2459 48 53.0807 48.3855 52.1174 49.0445M53.9999 55.4383C54 55.4588 54 55.4794 54 55.5C54 55.95 53.9752 56.3942 53.927 56.8313C50.4135 58.8473 46.3413 60 42 60C37.6587 60 33.5865 58.8473 30.073 56.8313C30.0248 56.3942 30 55.95 30 55.5C30 55.4795 30.0001 55.459 30.0002 55.4385M53.9999 55.4383C53.988 53.0852 53.2989 50.8922 52.1174 49.0445M52.1174 49.0445C49.9856 45.7104 46.2509 43.5 42 43.5C37.7496 43.5 34.0153 45.7098 31.8834 49.0432M31.8834 49.0432C30.9205 48.385 29.7559 48 28.5015 48C25.1878 48 22.5015 50.6863 22.5015 54C22.5015 54.1624 22.5079 54.3233 22.5206 54.4825C24.3919 55.1415 26.4048 55.5 28.5015 55.5C29.0061 55.5 29.506 55.4792 30.0002 55.4385M31.8834 49.0432C30.7014 50.8913 30.012 53.0848 30.0002 55.4385M48 31.5C48 34.8137 45.3137 37.5 42 37.5C38.6863 37.5 36 34.8137 36 31.5C36 28.1863 38.6863 25.5 42 25.5C45.3137 25.5 48 28.1863 48 31.5ZM60 37.5C60 39.9853 57.9853 42 55.5 42C53.0147 42 51 39.9853 51 37.5C51 35.0147 53.0147 33 55.5 33C57.9853 33 60 35.0147 60 37.5ZM33 37.5C33 39.9853 30.9853 42 28.5 42C26.0147 42 24 39.9853 24 37.5C24 35.0147 26.0147 33 28.5 33C30.9853 33 33 35.0147 33 37.5Z" stroke="#F1BC00" stroke-width="2" stroke-linecap="round" stroke-linejoin="round"/>
</svg>
