<svg width="84" height="84" viewBox="0 0 84 84" fill="none" xmlns="http://www.w3.org/2000/svg">
<rect width="84" height="84" rx="12.9231" fill="#E0F8F6"/>
<path d="M54 39V38C53.4477 38 53 38.4477 53 39H54ZM54.015 39H55.015C55.015 38.4477 54.5673 38 54.015 38V39ZM54.015 39.015V40.015C54.5673 40.015 55.015 39.5673 55.015 39.015H54.015ZM54 39.015H53C53 39.5673 53.4477 40.015 54 40.015V39.015ZM30 39V38C29.4477 38 29 38.4477 29 39H30ZM30.015 39H31.015C31.015 38.4477 30.5673 38 30.015 38V39ZM30.015 39.015V40.015C30.5673 40.015 31.015 39.5673 31.015 39.015H30.015ZM30 39.015H29C29 39.5673 29.4477 40.015 30 40.015V39.015ZM22.5 54.5C21.9477 54.5 21.5 54.9477 21.5 55.5C21.5 56.0523 21.9477 56.5 22.5 56.5V54.5ZM54.0935 59.7024L54.3561 58.7376L54.0935 59.7024ZM58 55.5C58 54.9477 57.5523 54.5 57 54.5C56.4477 54.5 56 54.9477 56 55.5H58ZM26.5 27C26.5 26.4477 26.0523 26 25.5 26C24.9477 26 24.5 26.4477 24.5 27H26.5ZM61.5 31C62.0523 31 62.5 30.5523 62.5 30C62.5 29.4477 62.0523 29 61.5 29V31ZM61.5 49C62.0523 49 62.5 48.5523 62.5 48C62.5 47.4477 62.0523 47 61.5 47V49ZM60.5 29.25V48.75H62.5V29.25H60.5ZM24.75 50C24.0596 50 23.5 49.4404 23.5 48.75H21.5C21.5 50.5449 22.9551 52 24.75 52V50ZM60.5 48.75C60.5 49.4404 59.9404 50 59.25 50V52C61.0449 52 62.5 50.5449 62.5 48.75H60.5ZM59.25 28C59.9404 28 60.5 28.5596 60.5 29.25H62.5C62.5 27.4551 61.0449 26 59.25 26V28ZM24.75 26C22.9551 26 21.5 27.4551 21.5 29.25H23.5C23.5 28.5596 24.0596 28 24.75 28V26ZM47 39C47 41.7614 44.7614 44 42 44V46C45.866 46 49 42.866 49 39H47ZM42 44C39.2386 44 37 41.7614 37 39H35C35 42.866 38.134 46 42 46V44ZM37 39C37 36.2386 39.2386 34 42 34V32C38.134 32 35 35.134 35 39H37ZM42 34C44.7614 34 47 36.2386 47 39H49C49 35.134 45.866 32 42 32V34ZM54 40H54.015V38H54V40ZM53.015 39V39.015H55.015V39H53.015ZM54.015 38.015H54V40.015H54.015V38.015ZM55 39.015V39H53V39.015H55ZM30 40H30.015V38H30V40ZM29.015 39V39.015H31.015V39H29.015ZM30.015 38.015H30V40.015H30.015V38.015ZM31 39.015V39H29V39.015H31ZM22.5 56.5C33.3449 56.5 43.8494 57.9504 53.8309 60.6673L54.3561 58.7376C44.205 55.9745 33.5239 54.5 22.5 54.5V56.5ZM58 57.5103V55.5H56V57.5103H58ZM53.8309 60.6673C55.903 61.2314 58 59.6948 58 57.5103H56C56 58.3395 55.192 58.9651 54.3561 58.7376L53.8309 60.6673ZM59.5 49.5C59.5 49.2239 59.7239 49 60 49V47C58.6193 47 57.5 48.1193 57.5 49.5H59.5ZM24 49C24.2761 49 24.5 49.2239 24.5 49.5H26.5C26.5 48.1193 25.3807 47 24 47V49ZM24.5 28.5C24.5 28.7761 24.2761 29 24 29V31C25.3807 31 26.5 29.8807 26.5 28.5H24.5ZM60 29C59.7239 29 59.5 28.7761 59.5 28.5H57.5C57.5 29.8807 58.6193 31 60 31V29ZM26.5 28.5V27H24.5V28.5H26.5ZM24 29H22.5V31H24V29ZM23.5 30V29.25H21.5V30H23.5ZM59.5 28.5V27H57.5V28.5H59.5ZM24.75 28H58.5V26H24.75V28ZM58.5 28H59.25V26H58.5V28ZM60 31H61.5V29H60V31ZM60 49H61.5V47H60V49ZM57.5 49.5V51H59.5V49.5H57.5ZM59.25 50H58.5V52H59.25V50ZM58.5 50H25.5V52H58.5V50ZM25.5 50H24.75V52H25.5V50ZM24.5 49.5V51H26.5V49.5H24.5ZM23.5 48.75V48H21.5V48.75H23.5ZM23.5 48V30H21.5V48H23.5ZM24 47H22.5V49H24V47Z" fill="#0E5854"/>
</svg>
