<svg width="84" height="84" viewBox="0 0 84 84" fill="none" xmlns="http://www.w3.org/2000/svg">
<rect width="84" height="84" rx="12.9231" fill="#E0F8F6"/>
<path d="M25.5 24V23C24.9477 23 24.5 23.4477 24.5 24H25.5ZM52.5 60V61C53.0523 61 53.5 60.5523 53.5 60H52.5ZM33.5 60C33.5 60.5523 33.9477 61 34.5 61C35.0523 61 35.5 60.5523 35.5 60H33.5ZM43.5 60H42.5C42.5 60.5523 42.9477 61 43.5 61V60ZM31.5 24H32.5C32.5 23.4477 32.0523 23 31.5 23V24ZM58.5 60V61C59.0523 61 59.5 60.5523 59.5 60H58.5ZM22.5 59C21.9477 59 21.5 59.4477 21.5 60C21.5 60.5523 21.9477 61 22.5 61V59ZM61.5 61C62.0523 61 62.5 60.5523 62.5 60C62.5 59.4477 62.0523 59 61.5 59V61ZM22.1583 35.0602C21.6392 35.2489 21.3715 35.8227 21.5602 36.3417C21.7489 36.8608 22.3227 37.1285 22.8417 36.9398L22.1583 35.0602ZM55.8417 24.9398C56.3608 24.7511 56.6285 24.1773 56.4398 23.6583C56.2511 23.1392 55.6773 22.8715 55.1583 23.0602L55.8417 24.9398ZM52.8162 36.5513C52.2923 36.3767 51.726 36.6598 51.5513 37.1838C51.3767 37.7077 51.6598 38.274 52.1838 38.4487L52.8162 36.5513ZM61.1838 41.4487C61.7077 41.6233 62.274 41.3402 62.4487 40.8162C62.6233 40.2923 62.3402 39.726 61.8162 39.5513L61.1838 41.4487ZM31.5 32.7273L31.8417 33.6671L31.5 32.7273ZM58.5 39.5L58.8162 38.5513L58.5 39.5ZM43.5 61H52.5V59H43.5V61ZM35.5 60V50.25H33.5V60H35.5ZM36.75 49H41.25V47H36.75V49ZM42.5 50.25V60H44.5V50.25H42.5ZM25.5 25H31.5V23H25.5V25ZM41.25 49C41.9404 49 42.5 49.5596 42.5 50.25H44.5C44.5 48.4551 43.0449 47 41.25 47V49ZM35.5 50.25C35.5 49.5596 36.0596 49 36.75 49V47C34.9551 47 33.5 48.4551 33.5 50.25H35.5ZM58.5 59H43.5V61H58.5V59ZM22.8417 36.9398L31.8417 33.6671L31.1583 31.7875L22.1583 35.0602L22.8417 36.9398ZM30.5 24V32.7273H32.5V24H30.5ZM52.1838 38.4487L58.1838 40.4487L58.8162 38.5513L52.8162 36.5513L52.1838 38.4487ZM58.1838 40.4487L61.1838 41.4487L61.8162 39.5513L58.8162 38.5513L58.1838 40.4487ZM57.5 39.5V60H59.5V39.5H57.5ZM22.5 61H25.5V59H22.5V61ZM25.5 61H61.5V59H25.5V61ZM24.5 24V60H26.5V24H24.5ZM31.8417 33.6671L52.8417 26.0307L52.1583 24.1511L31.1583 31.7875L31.8417 33.6671ZM52.8417 26.0307L55.8417 24.9398L55.1583 23.0602L52.1583 24.1511L52.8417 26.0307ZM53.5 60V25.0909H51.5V60H53.5Z" fill="#39876B"/>
</svg>
