<svg width="28" height="28" viewBox="0 0 28 28" fill="none" xmlns="http://www.w3.org/2000/svg">
<g clip-path="url(#clip0_111_264)">
<path d="M4.15578 8.98096C3.68265 8.98096 3.28122 9.14595 2.95123 9.47593C2.62125 9.80592 2.45621 10.2019 2.45621 10.664V17.76C2.45621 18.2337 2.6212 18.6348 2.95123 18.9648C3.28122 19.2948 3.68265 19.4598 4.15578 19.4598C4.62856 19.4598 5.02756 19.2948 5.35243 18.9648C5.67666 18.6348 5.83922 18.2337 5.83922 17.76V10.664C5.83922 10.2018 5.67423 9.80592 5.34419 9.47593C5.01416 9.14595 4.61794 8.98096 4.15578 8.98096Z" fill="#F1BC00"/>
<path d="M17.8198 2.61056L18.9915 0.449128C19.0684 0.306032 19.041 0.196302 18.9092 0.119143C18.766 0.0526103 18.656 0.0863237 18.5792 0.2179L17.3911 2.39661C16.3457 1.9344 15.24 1.70288 14.074 1.70288C12.9078 1.70288 11.802 1.93445 10.757 2.39661L9.5689 0.2179C9.4917 0.0863237 9.38172 0.0529082 9.23892 0.119143C9.10675 0.196649 9.07939 0.306032 9.1566 0.449128L10.3283 2.61056C9.14021 3.21646 8.19395 4.06029 7.48989 5.14388C6.78583 6.22808 6.43365 7.41286 6.43365 8.70033H21.6978C21.6978 7.41316 21.3456 6.22832 20.6416 5.14388C19.9375 4.06029 18.9967 3.21646 17.8198 2.61056ZM11.0457 5.7544C10.919 5.88141 10.7676 5.94461 10.5917 5.94461C10.4155 5.94461 10.2672 5.88141 10.1463 5.7544C10.0253 5.62799 9.96483 5.47724 9.96483 5.30073C9.96483 5.12482 10.0253 4.97378 10.1463 4.84707C10.2672 4.72065 10.4158 4.65745 10.5917 4.65745C10.7676 4.65745 10.919 4.72065 11.0457 4.84707C11.1721 4.97407 11.2356 5.12482 11.2356 5.30073C11.2353 5.47695 11.1718 5.62799 11.0457 5.7544ZM18.0012 5.7544C17.88 5.88141 17.7314 5.94461 17.5558 5.94461C17.3794 5.94461 17.2282 5.88141 17.1017 5.7544C16.975 5.62799 16.9118 5.47724 16.9118 5.30073C16.9118 5.12482 16.975 4.97378 17.1017 4.84707C17.2282 4.72065 17.3794 4.65745 17.5558 4.65745C17.7317 4.65745 17.8799 4.72065 18.0012 4.84707C18.1222 4.97407 18.1826 5.12482 18.1826 5.30073C18.1826 5.47695 18.1222 5.62799 18.0012 5.7544Z" fill="#F1BC00"/>
<path d="M6.49918 20.284C6.49918 20.7906 6.67509 21.2194 7.02697 21.5712C7.37915 21.9231 7.80794 22.099 8.31414 22.099H9.53537L9.5521 25.8454C9.5521 26.3185 9.71709 26.7203 10.0471 27.0503C10.3771 27.3803 10.7733 27.5453 11.2352 27.5453C11.708 27.5453 12.1097 27.3803 12.4397 27.0503C12.7698 26.7203 12.9348 26.3186 12.9348 25.8454V22.0994H15.212V25.8454C15.212 26.3185 15.3769 26.7203 15.707 27.0503C16.037 27.3803 16.4383 27.5453 16.9115 27.5453C17.3843 27.5453 17.786 27.3803 18.1161 27.0503C18.4461 26.7203 18.611 26.3186 18.611 25.8454V22.0994H19.8487C20.3437 22.0994 20.767 21.9234 21.1195 21.5715C21.4714 21.2197 21.6474 20.7909 21.6474 20.2844V9.29346H6.49918V20.284Z" fill="#F1BC00"/>
<path d="M23.9917 8.98096C23.5295 8.98096 23.1335 9.14352 22.8035 9.46774C22.4735 9.79256 22.3085 10.1916 22.3085 10.664V17.76C22.3085 18.2337 22.4735 18.6348 22.8035 18.9648C23.1335 19.2948 23.5298 19.4598 23.9917 19.4598C24.4645 19.4598 24.8662 19.2948 25.1962 18.9648C25.5263 18.6348 25.6912 18.2337 25.6912 17.76V10.664C25.6912 10.1915 25.5263 9.79256 25.1962 9.46774C24.8662 9.14352 24.4645 8.98096 23.9917 8.98096Z" fill="#F1BC00"/>
</g>
<defs>
<clipPath id="clip0_111_264">
<rect width="27.4597" height="27.4597" fill="white" transform="translate(0.343811 0.0859375)"/>
</clipPath>
</defs>
</svg>
