<svg width="29" height="31" viewBox="0 0 29 31" fill="none" xmlns="http://www.w3.org/2000/svg">
<g clip-path="url(#clip0_111_261)">
<path d="M22.2216 16.7441C22.2216 14.2293 23.5153 12.0792 25.3516 11.1746C24.8404 10.4807 24.155 9.82824 23.2326 9.14614C22.0388 8.26237 19.3944 8.16154 17.6609 8.62122C16.3444 8.9682 15.222 9.63843 14.6223 9.66809C14.0797 9.69775 12.9145 8.94447 11.5837 8.62122C9.97876 8.22975 8.22814 8.44921 7.02585 9.14614C3.53034 11.1746 2.9706 13.2476 2.9706 17.53C2.9706 22.4649 4.69265 26.6494 8.54228 29.5854C9.3876 30.2289 10.9069 30.6085 12.0892 30.1103C13.1059 29.6803 13.6485 29.1554 14.6223 29.0634C16.0445 28.93 16.707 29.4252 17.3924 29.8671C18.015 30.2675 19.4515 30.5907 20.194 30.1133C22.7956 28.4406 24.8433 25.7063 25.9256 22.5509C23.7895 21.8391 22.2216 19.5111 22.2216 16.7441ZM19.1802 5.47763C20.214 3.79314 20.2168 1.27531 20.194 1.2842C19.7656 1.43249 18.3206 1.08254 16.1416 2.856C15.3819 3.47582 14.4481 5.00016 14.114 5.99958C13.8598 6.75879 13.6113 8.61825 13.6056 8.62122C13.5799 8.62418 15.2763 8.52632 16.1387 8.0963C17.024 7.65738 18.5119 6.56899 19.1802 5.47763Z" fill="#F1BC00"/>
</g>
<defs>
<clipPath id="clip0_111_261">
<rect width="28.5581" height="29.6565" fill="white" transform="translate(0.169067 0.987305)"/>
</clipPath>
</defs>
</svg>
