<svg width="32" height="52" viewBox="0 0 32 52" fill="none" xmlns="http://www.w3.org/2000/svg">
<path d="M7.03202 22.4255L6.96131 22.1857L7.03202 22.4255ZM28.0365 1.04813C27.9435 0.946135 27.7853 0.938899 27.6833 1.03196L26.0213 2.54853C25.9193 2.6416 25.912 2.79972 26.0051 2.90172C26.0982 3.00371 26.2563 3.01095 26.3583 2.91788L27.8357 1.56982L29.1837 3.04723C29.2768 3.14922 29.4349 3.15646 29.5369 3.06339C29.6389 2.97033 29.6462 2.8122 29.5531 2.71021L28.0365 1.04813ZM8.95025 50.5696C8.95184 50.5908 8.94854 50.5858 8.95412 50.5668C8.96076 50.5441 8.98471 50.4899 9.04978 50.4572C9.10974 50.4271 9.15955 50.4383 9.16922 50.4409C9.17979 50.4437 9.17669 50.4448 9.15693 50.4324C9.07009 50.3779 8.90851 50.2244 8.67776 49.9516L8.29602 50.2746C8.52573 50.5461 8.73129 50.7556 8.89107 50.8559C8.93297 50.8822 8.98399 50.909 9.04073 50.9241C9.09656 50.939 9.18457 50.9491 9.27436 50.9039C9.36925 50.8562 9.41465 50.7732 9.43393 50.7074C9.45213 50.6453 9.45266 50.583 9.44885 50.5322L8.95025 50.5696ZM7.46005 48.2885C7.11753 47.7742 6.74602 47.1842 6.3603 46.533L5.93009 46.7878C6.31999 47.4461 6.69617 48.0435 7.04391 48.5656L7.46005 48.2885ZM5.33938 44.7192C5.02448 44.1306 4.70883 43.5119 4.39967 42.8703L3.94924 43.0873C4.26158 43.7355 4.58044 44.3605 4.89851 44.955L5.33938 44.7192ZM3.53956 40.9791C3.26978 40.3481 3.01167 39.7033 2.77098 39.0505L2.30185 39.2234C2.54569 39.8848 2.80697 40.5375 3.07981 41.1757L3.53956 40.9791ZM2.11037 37.0848C1.90911 36.4186 1.73137 35.7504 1.58289 35.0859L1.09493 35.1949C1.24634 35.8726 1.42731 36.5527 1.63173 37.2294L2.11037 37.0848ZM1.22353 33.0507C1.13552 32.3527 1.08817 31.6669 1.08828 31L0.588277 30.9999C0.588163 31.6903 0.637178 32.3972 0.727461 33.1132L1.22353 33.0507ZM1.25407 28.967C1.37286 28.2827 1.5582 27.6316 1.81875 27.0223L1.35902 26.8257C1.08151 27.4747 0.886066 28.1636 0.761437 28.8815L1.25407 28.967ZM2.85665 25.3012C3.26576 24.8019 3.75543 24.3475 4.33541 23.9465L4.05106 23.5352C3.43348 23.9622 2.90917 24.4482 2.46991 24.9843L2.85665 25.3012ZM6.12498 23.0013C6.43368 22.8787 6.75937 22.7665 7.10273 22.6652L6.96131 22.1857C6.60407 22.291 6.26397 22.4082 5.94048 22.5366L6.12498 23.0013ZM7.10273 22.6652C7.41829 22.5722 7.72928 22.4833 8.03577 22.3982L7.90206 21.9165C7.59306 22.0022 7.27949 22.0918 6.96131 22.1857L7.10273 22.6652ZM9.8925 21.9137C10.5419 21.7547 11.1692 21.6115 11.7751 21.4806L11.6695 20.9918C11.0597 21.1237 10.4279 21.2678 9.77356 21.4281L9.8925 21.9137ZM13.6604 21.0947C14.3196 20.9663 14.9501 20.8491 15.5543 20.7367L15.4628 20.2451C14.859 20.3575 14.2264 20.4751 13.5648 20.6039L13.6604 21.0947ZM17.4571 20.3741C18.1269 20.2403 18.7594 20.1032 19.3557 19.9515L19.2324 19.4669C18.6477 19.6157 18.0244 19.7509 17.3591 19.8838L17.4571 20.3741ZM21.2308 19.3683C21.8691 19.1225 22.4579 18.8335 22.999 18.4791L22.725 18.0609C22.2191 18.3923 21.6631 18.666 21.051 18.9017L21.2308 19.3683ZM24.5039 17.1706C24.9142 16.7003 25.2829 16.1583 25.6137 15.5292L25.1711 15.2965C24.8567 15.8945 24.5095 16.4036 24.1271 16.8419L24.5039 17.1706ZM26.3805 13.7182C26.5758 13.1456 26.753 12.5198 26.9137 11.8348L26.4269 11.7206C26.2694 12.3921 26.0965 13.0019 25.9073 13.5568L26.3805 13.7182ZM27.294 9.92265C27.3953 9.32014 27.4879 8.67989 27.5722 7.99917L27.076 7.93772C26.9924 8.61216 26.9009 9.2452 26.801 9.83974L27.294 9.92265ZM27.7788 6.07704C27.8358 5.46269 27.8877 4.81976 27.9349 4.14678L27.4361 4.11183C27.3892 4.78144 27.3375 5.42059 27.2809 6.03083L27.7788 6.07704ZM28.053 2.21422C28.0701 1.89171 28.0863 1.56303 28.1016 1.22807L27.6021 1.2052C27.5868 1.53903 27.5707 1.86652 27.5537 2.18779L28.053 2.21422ZM7.03202 22.4255L6.8906 21.9459L7.03202 22.4255ZM28.2212 0.879623C28.0351 0.675636 27.7188 0.661158 27.5148 0.847288L24.1907 3.88043C23.9867 4.06656 23.9722 4.38281 24.1583 4.5868C24.3445 4.79079 24.6607 4.80526 24.8647 4.61913L27.8195 1.92301L30.5156 4.87781C30.7018 5.0818 31.018 5.09628 31.222 4.91015C31.426 4.72402 31.4405 4.40777 31.2543 4.20378L28.2212 0.879623ZM8.70095 50.5883C8.70093 50.588 8.70079 50.5862 8.70075 50.5828C8.70071 50.5795 8.70075 50.5742 8.70121 50.5671C8.70206 50.5541 8.7047 50.5289 8.71421 50.4965C8.73381 50.4296 8.79244 50.3068 8.93749 50.2339C9.07233 50.1661 9.19105 50.188 9.23347 50.1993C9.2777 50.2111 9.29855 50.2262 9.28987 50.2207C9.23949 50.1891 9.09991 50.0636 8.86863 49.7902L8.10515 50.436C8.33433 50.7069 8.5619 50.9444 8.75814 51.0676C8.81111 51.1009 8.88608 51.1417 8.97648 51.1657C9.06506 51.1893 9.22199 51.2101 9.38665 51.1273C9.56153 51.0394 9.64159 50.8877 9.67383 50.7778C9.70393 50.6751 9.70307 50.5791 9.69814 50.5134L8.70095 50.5883ZM7.66812 48.1499C7.32821 47.6395 6.95903 47.0533 6.5754 46.4056L5.71499 46.9152C6.10697 47.577 6.48549 48.1782 6.83583 48.7042L7.66812 48.1499ZM5.55982 44.6012C5.2465 44.0156 4.93245 43.4 4.62489 42.7617L3.72402 43.1958C4.03796 43.8474 4.35842 44.4755 4.67807 45.073L5.55982 44.6012ZM3.76943 40.8809C3.50119 40.2534 3.24466 39.6125 3.00555 38.964L2.06729 39.3099C2.3127 39.9755 2.57557 40.6321 2.84993 41.2739L3.76943 40.8809ZM2.34969 37.0125C2.15002 36.3515 1.97388 35.6893 1.82688 35.0314L0.850944 35.2495C1.00383 35.9337 1.1864 36.6197 1.39241 37.3017L2.34969 37.0125ZM1.47157 33.0194C1.3847 32.3305 1.33817 31.6551 1.33828 31L0.338277 30.9999C0.338161 31.702 0.388004 32.4195 0.479426 33.1445L1.47157 33.0194ZM1.50038 29.0098C1.61626 28.3423 1.79654 27.7101 2.04862 27.1206L1.12915 26.7274C0.84317 27.3962 0.642666 28.104 0.51512 28.8388L1.50038 29.0098ZM3.05002 25.4596C3.44406 24.9788 3.91641 24.5401 4.47758 24.1522L3.90889 23.3296C3.2725 23.7696 2.73087 24.2714 2.27654 24.8258L3.05002 25.4596ZM6.21723 23.2337C6.51854 23.114 6.83701 23.0042 7.17343 22.905L6.8906 21.9459C6.52641 22.0533 6.17911 22.1729 5.84824 22.3042L6.21723 23.2337ZM7.17343 22.905C7.48768 22.8124 7.79739 22.7239 8.10262 22.6391L7.83521 21.6756C7.52495 21.7617 7.2101 21.8517 6.8906 21.9459L7.17343 22.905ZM9.95198 22.1565C10.5989 21.9981 11.2239 21.8555 11.828 21.7249L11.6167 20.7475C11.0049 20.8797 10.3709 21.0244 9.71409 21.1852L9.95198 22.1565ZM13.7082 21.3401C14.3662 21.212 14.9957 21.0949 15.6 20.9825L15.4171 19.9993C14.8134 20.1117 14.1798 20.2295 13.517 20.3585L13.7082 21.3401ZM17.5061 20.6193C18.1781 20.485 18.8153 20.3469 19.4173 20.1938L19.1707 19.2246C18.5919 19.3719 17.9732 19.5061 17.3101 19.6387L17.5061 20.6193ZM21.3206 19.6016C21.9721 19.3507 22.5774 19.0542 23.136 18.6883L22.588 17.8517C22.0996 18.1717 21.5601 18.4378 20.9612 18.6685L21.3206 19.6016ZM24.6923 17.335C25.1166 16.8486 25.496 16.2902 25.835 15.6455L24.9499 15.1801C24.6436 15.7626 24.3071 16.2553 23.9387 16.6775L24.6923 17.335ZM26.6171 13.7989C26.8154 13.2174 26.9948 12.5836 27.1571 11.8919L26.1835 11.6635C26.0276 12.3282 25.8569 12.93 25.6706 13.4761L26.6171 13.7989ZM27.5406 9.96411C27.6426 9.35761 27.7356 8.71375 27.8203 8.0299L26.8279 7.90699C26.7447 8.5783 26.6537 9.20773 26.5544 9.79829L27.5406 9.96411ZM28.0277 6.10015C28.0849 5.48373 28.137 4.83892 28.1843 4.16426L27.1867 4.09436C27.1399 4.76229 27.0884 5.39955 27.032 6.00773L28.0277 6.10015ZM28.3026 2.22743C28.3197 1.9043 28.336 1.57503 28.3513 1.2395L27.3524 1.19377C27.3371 1.52703 27.321 1.85393 27.304 2.17458L28.3026 2.22743Z" fill="#077771"/>
</svg>
