<svg width="218" height="48" viewBox="0 0 218 48" fill="none" xmlns="http://www.w3.org/2000/svg">
<path d="M58.0145 38V9.7376H62.8145V22.4864H62.2769C62.8657 21.104 63.7745 20.0544 65.0033 19.3376C66.2321 18.5952 67.6401 18.224 69.2273 18.224C71.5313 18.224 73.2465 18.8768 74.3729 20.1824C75.4993 21.4624 76.0625 23.4208 76.0625 26.0576V38H71.2625V26.288C71.2625 24.7776 70.9681 23.6896 70.3793 23.024C69.8161 22.3328 68.9073 21.9872 67.6529 21.9872C66.1937 21.9872 65.0161 22.448 64.1201 23.3696C63.2497 24.2656 62.8145 25.4688 62.8145 26.9792V38H58.0145ZM88.64 38.384C86.9504 38.384 85.4656 37.9872 84.1856 37.1936C82.9056 36.3744 81.9072 35.2096 81.1904 33.6992C80.4736 32.1888 80.1152 30.384 80.1152 28.2848C80.1152 26.1856 80.4736 24.3936 81.1904 22.9088C81.9072 21.3984 82.9056 20.2464 84.1856 19.4528C85.4656 18.6336 86.9504 18.224 88.64 18.224C90.2784 18.224 91.712 18.6336 92.9408 19.4528C94.1952 20.2464 95.0272 21.3216 95.4368 22.6784H95.0144L95.4368 18.608H100.045C99.968 19.4016 99.8912 20.208 99.8144 21.0272C99.7632 21.8464 99.7376 22.6528 99.7376 23.4464V38H94.976L94.9376 34.0064H95.3984C94.9888 35.3376 94.1568 36.4 92.9024 37.1936C91.648 37.9872 90.2272 38.384 88.64 38.384ZM89.984 34.6976C91.4944 34.6976 92.7104 34.1728 93.632 33.1232C94.5536 32.048 95.0144 30.4352 95.0144 28.2848C95.0144 26.1344 94.5536 24.5344 93.632 23.4848C92.7104 22.4352 91.4944 21.9104 89.984 21.9104C88.4736 21.9104 87.2576 22.4352 86.336 23.4848C85.4144 24.5344 84.9536 26.1344 84.9536 28.2848C84.9536 30.4352 85.4016 32.048 86.2976 33.1232C87.2192 34.1728 88.448 34.6976 89.984 34.6976ZM110.46 38L102.089 18.608H107.196L113.263 33.776H112.073L118.294 18.608H123.094L114.684 38H110.46ZM132.778 38.384C131.088 38.384 129.603 37.9872 128.323 37.1936C127.043 36.3744 126.045 35.2096 125.328 33.6992C124.611 32.1888 124.253 30.384 124.253 28.2848C124.253 26.1856 124.611 24.3936 125.328 22.9088C126.045 21.3984 127.043 20.2464 128.323 19.4528C129.603 18.6336 131.088 18.224 132.778 18.224C134.416 18.224 135.85 18.6336 137.078 19.4528C138.333 20.2464 139.165 21.3216 139.574 22.6784H139.152L139.574 18.608H144.182C144.106 19.4016 144.029 20.208 143.952 21.0272C143.901 21.8464 143.875 22.6528 143.875 23.4464V38H139.114L139.075 34.0064H139.536C139.126 35.3376 138.294 36.4 137.04 37.1936C135.786 37.9872 134.365 38.384 132.778 38.384ZM134.122 34.6976C135.632 34.6976 136.848 34.1728 137.77 33.1232C138.691 32.048 139.152 30.4352 139.152 28.2848C139.152 26.1344 138.691 24.5344 137.77 23.4848C136.848 22.4352 135.632 21.9104 134.122 21.9104C132.611 21.9104 131.395 22.4352 130.474 23.4848C129.552 24.5344 129.091 26.1344 129.091 28.2848C129.091 30.4352 129.539 32.048 130.435 33.1232C131.357 34.1728 132.586 34.6976 134.122 34.6976ZM149.102 38V23.4464C149.102 22.6528 149.076 21.8464 149.025 21.0272C148.974 20.208 148.897 19.4016 148.795 18.608H153.441L153.825 22.448H153.364C153.979 21.0912 154.888 20.0544 156.091 19.3376C157.294 18.5952 158.689 18.224 160.276 18.224C162.555 18.224 164.27 18.864 165.422 20.144C166.574 21.424 167.15 23.4208 167.15 26.1344V38H162.35V26.3648C162.35 24.8032 162.043 23.6896 161.428 23.024C160.84 22.3328 159.944 21.9872 158.74 21.9872C157.256 21.9872 156.078 22.448 155.208 23.3696C154.337 24.2912 153.902 25.52 153.902 27.056V38H149.102ZM172.24 38V23.4464C172.24 22.6528 172.214 21.8464 172.163 21.0272C172.112 20.208 172.035 19.4016 171.932 18.608H176.579L176.963 22.448H176.502C177.116 21.0912 178.025 20.0544 179.228 19.3376C180.432 18.5952 181.827 18.224 183.414 18.224C185.692 18.224 187.408 18.864 188.56 20.144C189.712 21.424 190.288 23.4208 190.288 26.1344V38H185.488V26.3648C185.488 24.8032 185.18 23.6896 184.566 23.024C183.977 22.3328 183.081 21.9872 181.878 21.9872C180.393 21.9872 179.216 22.448 178.345 23.3696C177.475 24.2912 177.04 25.52 177.04 27.056V38H172.24ZM202.865 38.384C201.175 38.384 199.691 37.9872 198.411 37.1936C197.131 36.3744 196.132 35.2096 195.415 33.6992C194.699 32.1888 194.34 30.384 194.34 28.2848C194.34 26.1856 194.699 24.3936 195.415 22.9088C196.132 21.3984 197.131 20.2464 198.411 19.4528C199.691 18.6336 201.175 18.224 202.865 18.224C204.503 18.224 205.937 18.6336 207.166 19.4528C208.42 20.2464 209.252 21.3216 209.662 22.6784H209.239L209.662 18.608H214.27C214.193 19.4016 214.116 20.208 214.039 21.0272C213.988 21.8464 213.963 22.6528 213.963 23.4464V38H209.201L209.163 34.0064H209.623C209.214 35.3376 208.382 36.4 207.127 37.1936C205.873 37.9872 204.452 38.384 202.865 38.384ZM204.209 34.6976C205.719 34.6976 206.935 34.1728 207.857 33.1232C208.779 32.048 209.239 30.4352 209.239 28.2848C209.239 26.1344 208.779 24.5344 207.857 23.4848C206.935 22.4352 205.719 21.9104 204.209 21.9104C202.699 21.9104 201.483 22.4352 200.561 23.4848C199.639 24.5344 199.179 26.1344 199.179 28.2848C199.179 30.4352 199.627 32.048 200.523 33.1232C201.444 34.1728 202.673 34.6976 204.209 34.6976Z" fill="white"/>
<path d="M15.0624 7.52515H48.2681L33.2057 43.3376H0L15.0624 7.52515Z" fill="white"/>
<path fill-rule="evenodd" clip-rule="evenodd" d="M9.17578 21.5338V43.3374H16.39V35.7306C16.39 31.8603 19.0537 29.3169 23.0493 29.3169C26.7674 29.3169 29.2092 31.805 29.2092 35.62V43.3374H33.1842L36.4234 35.6359V33.2978C36.4234 26.663 31.9013 22.1124 25.4522 21.6504C21.799 21.3888 18.6098 21.849 16.39 24.4476L15.6145 7.52515H15.2866L15.0401 7.59062L9.17578 21.5338Z" fill="#0B4340"/>
<path d="M16.3936 35.5534C16.3936 31.9772 19.2926 29.0781 22.8689 29.0781C26.4451 29.0781 29.3442 31.9772 29.3442 35.5534V43.3377H16.3936V35.5534Z" fill="#F1BC00"/>
</svg>
