<svg width="178" height="41" viewBox="0 0 178 41" fill="none" xmlns="http://www.w3.org/2000/svg">
<path d="M58.1157 14.394C55.9679 14.394 54.1455 15.2076 52.8438 16.7371V7.95051H48.6132V31.3813H52.8438V22.2694C52.8438 19.9914 54.4059 18.4944 56.7489 18.4944C58.9293 18.4944 60.3612 19.9588 60.3612 22.2043V31.3813H64.5918V20.8375C64.5918 16.9323 62.0209 14.394 58.1157 14.394ZM79.5435 14.7845V16.7696C78.2093 15.3052 76.3543 14.394 74.1414 14.394C69.5203 14.394 66.0382 18.1364 66.0382 23.0829C66.0382 28.0294 69.5203 31.7719 74.1414 31.7719C76.3543 31.7719 78.2093 30.8607 79.5435 29.3962V31.3813H83.7741V14.7845H79.5435ZM74.955 27.6715C72.3515 27.6715 70.399 25.6864 70.399 23.0829C70.399 20.4795 72.3515 18.4944 74.955 18.4944C77.5909 18.4944 79.5435 20.4795 79.5435 23.0829C79.5435 25.6864 77.5909 27.6715 74.955 27.6715ZM97.9847 14.7845L93.6891 26.0769L89.3609 14.7845H84.5445L91.4436 31.3813H95.8043L102.703 14.7845H97.9847ZM115.105 14.7845V16.7696C113.771 15.3052 111.916 14.394 109.703 14.394C105.082 14.394 101.6 18.1364 101.6 23.0829C101.6 28.0294 105.082 31.7719 109.703 31.7719C111.916 31.7719 113.771 30.8607 115.105 29.3962V31.3813H119.336V14.7845H115.105ZM110.517 27.6715C107.913 27.6715 105.961 25.6864 105.961 23.0829C105.961 20.4795 107.913 18.4944 110.517 18.4944C113.153 18.4944 115.105 20.4795 115.105 23.0829C115.105 25.6864 113.153 27.6715 110.517 27.6715ZM131.464 14.394C129.316 14.394 127.493 15.175 126.192 16.6394V14.7845H121.961V31.3813H126.192V22.2694C126.192 19.9914 127.754 18.4944 130.064 18.4944C132.277 18.4944 133.709 19.9588 133.709 22.2043V31.3813H137.94V20.8375C137.94 16.9323 135.369 14.394 131.464 14.394ZM149.832 14.394C147.685 14.394 145.862 15.175 144.56 16.6394V14.7845H140.33V31.3813H144.56V22.2694C144.56 19.9914 146.122 18.4944 148.433 18.4944C150.646 18.4944 152.078 19.9588 152.078 22.2043V31.3813H156.308V20.8375C156.308 16.9323 153.737 14.394 149.832 14.394ZM171.26 14.7845V16.7696C169.926 15.3052 168.071 14.394 165.858 14.394C161.237 14.394 157.755 18.1364 157.755 23.0829C157.755 28.0294 161.237 31.7719 165.858 31.7719C168.071 31.7719 169.926 30.8607 171.26 29.3962V31.3813H175.491V14.7845H171.26ZM166.672 27.6715C164.068 27.6715 162.116 25.6864 162.116 23.0829C162.116 20.4795 164.068 18.4944 166.672 18.4944C169.308 18.4944 171.26 20.4795 171.26 23.0829C171.26 25.6864 169.308 27.6715 166.672 27.6715Z" fill="white"/>
<path d="M12.819 6.65234H40.3889L27.883 36.496H0.31311L12.819 6.65234Z" fill="white"/>
<path fill-rule="evenodd" clip-rule="evenodd" d="M7.93115 36.496H13.921V30.1571C13.921 26.9318 16.1326 24.8123 19.45 24.8123C22.5371 24.8123 24.5644 26.8857 24.5644 30.0649V36.496H27.8648L30.5542 30.0781V28.1297C30.5542 22.6007 26.7996 18.8085 21.445 18.4236C18.4119 18.2055 15.764 18.589 13.921 20.7546L13.2771 6.65234H13.0053L12.7999 6.70713L7.93115 18.3257V36.496Z" fill="#0B4340"/>
<path d="M13.9245 29.9896C13.9245 27.0203 16.3315 24.6133 19.3008 24.6133C22.27 24.6133 24.6771 27.0203 24.6771 29.9896V36.4963H13.9245V29.9896Z" fill="#F1BC00"/>
</svg>
