<svg width="41" height="30" viewBox="0 0 41 30" fill="none" xmlns="http://www.w3.org/2000/svg">
<path d="M12.7024 0.100647H40.2723L27.7663 29.9443H0.196472L12.7024 0.100647Z" fill="#0B4340" fill-opacity="0.08"/>
<path fill-rule="evenodd" clip-rule="evenodd" d="M7.81451 29.9443H13.8043V23.6054C13.8043 20.3801 16.0159 18.2606 19.3334 18.2606C22.4204 18.2606 24.4478 20.334 24.4478 23.5132V29.9443H27.7482L30.4376 23.5264V21.578C30.4376 16.049 26.683 12.2568 21.3284 11.8719C18.2953 11.6538 15.6473 12.0373 13.8043 14.2029L13.1604 0.100647H12.8887L12.6832 0.155438L7.81451 11.774V29.9443Z" fill="white"/>
<path d="M13.8079 23.4377C13.8079 20.4684 16.2149 18.0614 19.1842 18.0614V18.0614C22.1534 18.0614 24.5604 20.4684 24.5604 23.4377V29.9444H13.8079V23.4377Z" fill="#F1BC00" fill-opacity="0.17"/>
</svg>
