<svg width="178" height="41" viewBox="0 0 178 41" fill="none" xmlns="http://www.w3.org/2000/svg">
<path d="M57.9991 14.8422C55.8513 14.8422 54.0289 15.6558 52.7272 17.1853V8.39875H48.4966V31.8296H52.7272V22.7176C52.7272 20.4396 54.2892 18.9426 56.6323 18.9426C58.8127 18.9426 60.2446 20.4071 60.2446 22.6525V31.8296H64.4751V21.2857C64.4751 17.3806 61.9042 14.8422 57.9991 14.8422ZM79.4269 15.2327V17.2179C78.0926 15.7534 76.2377 14.8422 74.0248 14.8422C69.4037 14.8422 65.9216 18.5847 65.9216 23.5312C65.9216 28.4777 69.4037 32.2201 74.0248 32.2201C76.2377 32.2201 78.0926 31.3089 79.4269 29.8445V31.8296H83.6574V15.2327H79.4269ZM74.8383 28.1197C72.2349 28.1197 70.2823 26.1346 70.2823 23.5312C70.2823 20.9277 72.2349 18.9426 74.8383 18.9426C77.4743 18.9426 79.4269 20.9277 79.4269 23.5312C79.4269 26.1346 77.4743 28.1197 74.8383 28.1197ZM97.8681 15.2327L93.5724 26.5251L89.2442 15.2327H84.4279L91.327 31.8296H95.6877L102.587 15.2327H97.8681ZM114.989 15.2327V17.2179C113.654 15.7534 111.799 14.8422 109.586 14.8422C104.965 14.8422 101.483 18.5847 101.483 23.5312C101.483 28.4777 104.965 32.2201 109.586 32.2201C111.799 32.2201 113.654 31.3089 114.989 29.8445V31.8296H119.219V15.2327H114.989ZM110.4 28.1197C107.797 28.1197 105.844 26.1346 105.844 23.5312C105.844 20.9277 107.797 18.9426 110.4 18.9426C113.036 18.9426 114.989 20.9277 114.989 23.5312C114.989 26.1346 113.036 28.1197 110.4 28.1197ZM131.347 14.8422C129.199 14.8422 127.377 15.6233 126.075 17.0877V15.2327H121.844V31.8296H126.075V22.7176C126.075 20.4396 127.637 18.9426 129.948 18.9426C132.161 18.9426 133.592 20.4071 133.592 22.6525V31.8296H137.823V21.2857C137.823 17.3806 135.252 14.8422 131.347 14.8422ZM149.716 14.8422C147.568 14.8422 145.745 15.6233 144.444 17.0877V15.2327H140.213V31.8296H144.444V22.7176C144.444 20.4396 146.006 18.9426 148.316 18.9426C150.529 18.9426 151.961 20.4071 151.961 22.6525V31.8296H156.192V21.2857C156.192 17.3806 153.621 14.8422 149.716 14.8422ZM171.143 15.2327V17.2179C169.809 15.7534 167.954 14.8422 165.741 14.8422C161.12 14.8422 157.638 18.5847 157.638 23.5312C157.638 28.4777 161.12 32.2201 165.741 32.2201C167.954 32.2201 169.809 31.3089 171.143 29.8445V31.8296H175.374V15.2327H171.143ZM166.555 28.1197C163.952 28.1197 161.999 26.1346 161.999 23.5312C161.999 20.9277 163.952 18.9426 166.555 18.9426C169.191 18.9426 171.143 20.9277 171.143 23.5312C171.143 26.1346 169.191 28.1197 166.555 28.1197Z" fill="black"/>
<path d="M12.7024 7.10065H40.2723L27.7663 36.9443H0.196472L12.7024 7.10065Z" fill="#0B4340"/>
<path fill-rule="evenodd" clip-rule="evenodd" d="M7.81451 36.9443H13.8043V30.6054C13.8043 27.3801 16.0159 25.2606 19.3334 25.2606C22.4204 25.2606 24.4478 27.334 24.4478 30.5132V36.9443H27.7482L30.4376 30.5264V28.578C30.4376 23.049 26.683 19.2568 21.3284 18.8719C18.2953 18.6538 15.6473 19.0373 13.8043 21.2029L13.1604 7.10065H12.8887L12.6832 7.15544L7.81451 18.774V36.9443Z" fill="white"/>
<path d="M13.8079 30.4377C13.8079 27.4684 16.2149 25.0614 19.1842 25.0614V25.0614C22.1534 25.0614 24.5604 27.4684 24.5604 30.4377V36.9444H13.8079V30.4377Z" fill="#F1BC00"/>
</svg>
